<svg width="23" height="30" viewBox="0 0 23 30" fill="none" xmlns="http://www.w3.org/2000/svg">
<path d="M11.3639 0C8.34997 0.00309063 5.46042 1.20215 3.32977 3.33389C1.19912 5.46564 0.00154393 8.3558 0 11.3698C0 17.4755 10.4806 29.3077 10.9256 29.8044C10.9803 29.8659 11.0475 29.9151 11.1226 29.9489C11.1977 29.9826 11.2791 30 11.3614 30C11.4438 30 11.5252 29.9826 11.6003 29.9489C11.6754 29.9151 11.7425 29.8659 11.7973 29.8044C12.2414 29.3044 22.7229 17.4713 22.7229 11.3698C22.7213 8.35667 21.5244 5.46726 19.3949 3.33566C17.2653 1.20406 14.377 0.00441408 11.3639 0V0ZM11.3639 28.5236C9.36398 26.1845 1.16998 16.3647 1.16998 11.3639C1.16998 8.66022 2.24402 6.06724 4.15584 4.15542C6.06766 2.24361 8.66063 1.16956 11.3644 1.16956C14.0681 1.16956 16.661 2.24361 18.5729 4.15542C20.4847 6.06724 21.5587 8.66022 21.5587 11.3639C21.5579 16.3647 13.3639 26.1961 11.3639 28.5236Z" fill="#000000"/>
<path d="M11.5681 5.70215C10.3505 5.7038 9.16066 6.06637 8.14905 6.74405C7.13743 7.42172 6.34942 8.38408 5.8846 9.50949C5.41977 10.6349 5.299 11.8728 5.53756 13.0669C5.77612 14.2609 6.36329 15.3574 7.22486 16.2178C8.08643 17.0782 9.18374 17.6639 10.3781 17.9008C11.5724 18.1378 12.8102 18.0153 13.935 17.549C15.0598 17.0827 16.0211 16.2933 16.6974 15.2808C17.3737 14.2683 17.7346 13.078 17.7346 11.8604C17.7345 11.051 17.5749 10.2496 17.2648 9.50192C16.9548 8.75428 16.5004 8.07508 15.9277 7.50315C15.355 6.93122 14.6752 6.47778 13.9272 6.16875C13.1791 5.85972 12.3775 5.70117 11.5681 5.70215ZM11.5681 16.8553C10.5813 16.8553 9.61676 16.5627 8.79631 16.0144C7.97587 15.4662 7.33641 14.6871 6.9588 13.7754C6.58119 12.8638 6.48239 11.8607 6.67489 10.8929C6.86739 9.92509 7.34255 9.03613 8.04029 8.33839C8.73802 7.64066 9.627 7.1655 10.5948 6.97299C11.5626 6.78049 12.5657 6.87929 13.4773 7.2569C14.389 7.63451 15.1681 8.27397 15.7164 9.09442C16.2646 9.91487 16.5572 10.8795 16.5572 11.8662C16.5572 13.1894 16.0315 14.4584 15.0959 15.394C14.1603 16.3296 12.8913 16.8553 11.5681 16.8553Z" fill="#000000"/>
</svg>
