<svg width="24" height="19" viewBox="0 0 24 19" fill="none" xmlns="http://www.w3.org/2000/svg">
<path d="M21.07 0H2.93333C2.15569 0.00105826 1.4102 0.310443 0.860322 0.860321C0.310445 1.4102 0.00105826 2.15569 0 2.93333L0 15.3293C0.00105826 16.107 0.310445 16.8525 0.860322 17.4023C1.4102 17.9522 2.15569 18.2616 2.93333 18.2627H21.0667C21.8443 18.2616 22.5898 17.9522 23.1397 17.4023C23.6895 16.8525 23.9989 16.107 24 15.3293V2.94C24.0009 2.55451 23.9258 2.17263 23.7789 1.81618C23.6321 1.45974 23.4165 1.13574 23.1444 0.862688C22.8723 0.58964 22.549 0.372905 22.1931 0.224879C21.8371 0.0768524 21.4555 0.000437063 21.07 0ZM22.6667 15.3293C22.6661 15.7519 22.498 16.1571 22.1992 16.4559C21.9004 16.7547 21.4953 16.9228 21.0727 16.9233H2.93333C2.51074 16.9228 2.10561 16.7547 1.80679 16.4559C1.50797 16.1571 1.33986 15.7519 1.33933 15.3293V2.94C1.33986 2.51741 1.50797 2.11227 1.80679 1.81346C2.10561 1.51464 2.51074 1.34653 2.93333 1.346H21.0667C21.4893 1.34653 21.8944 1.51464 22.1932 1.81346C22.492 2.11227 22.6601 2.51741 22.6607 2.94V15.3293H22.6667Z" fill="#00BBB4"/>
<path d="M15.1333 8.97894L21 3.71228C21.1326 3.59311 21.2124 3.42614 21.2219 3.2481C21.2314 3.07007 21.1698 2.89555 21.0506 2.76294C20.9315 2.63034 20.7645 2.5505 20.5864 2.541C20.4084 2.53149 20.2339 2.59311 20.1013 2.71228L12.0066 9.97894L10.4273 8.56894C10.4226 8.56428 10.4173 8.55894 10.4173 8.55427C10.3832 8.5201 10.3467 8.48846 10.308 8.45961L3.88196 2.70894C3.74764 2.60323 3.57808 2.55268 3.4078 2.56758C3.23752 2.58248 3.07931 2.66171 2.96539 2.78914C2.85146 2.91658 2.79038 3.08263 2.79458 3.25351C2.79877 3.4244 2.86793 3.58725 2.98796 3.70894L8.9333 9.02361L3.01863 14.5603C2.88938 14.6824 2.81368 14.8507 2.80806 15.0284C2.80244 15.2062 2.86735 15.3789 2.98863 15.5089C3.05203 15.5756 3.12821 15.6289 3.21261 15.6655C3.29702 15.7022 3.38794 15.7215 3.47996 15.7223C3.64926 15.7224 3.81235 15.6586 3.93663 15.5436L9.94063 9.92694L11.5693 11.3816C11.6924 11.4917 11.852 11.5522 12.0172 11.5513C12.1824 11.5505 12.3413 11.4883 12.4633 11.3769L14.1366 9.87694L20.1053 15.5483C20.2345 15.6706 20.4069 15.7366 20.5847 15.732C20.7626 15.7274 20.9313 15.6524 21.054 15.5236C21.1759 15.3943 21.2418 15.2219 21.2372 15.0442C21.2325 14.8665 21.1578 14.6978 21.0293 14.5749L15.1333 8.97894Z" fill="#00BBB4"/>
</svg>
