<svg width="24" height="23" viewBox="0 0 24 23" fill="none" xmlns="http://www.w3.org/2000/svg">
<path d="M4.85543 15.1725C7.18365 17.8254 10.0835 19.9765 13.3608 21.482C14.8443 22.2069 16.4592 22.6595 18.1204 22.816C18.2351 22.8204 18.3452 22.8255 18.4599 22.8255C19.0343 22.8418 19.6056 22.7389 20.1336 22.524C20.6617 22.3092 21.1337 21.9876 21.5167 21.5818C21.5245 21.5749 21.5313 21.5671 21.5367 21.5584C21.8397 21.2264 22.1614 20.9101 22.5005 20.6109C22.7352 20.3981 22.9747 20.1757 23.2048 19.949C23.4562 19.734 23.6569 19.4713 23.7939 19.1779C23.9309 18.8846 24.0011 18.5672 24 18.2464C23.9989 17.9256 23.9264 17.6087 23.7873 17.3162C23.6482 17.0237 23.4457 16.7623 23.1928 16.5489L20.1914 13.7065C19.9694 13.4715 19.6988 13.2823 19.3963 13.1505C19.0939 13.0187 18.7661 12.9471 18.4332 12.9403C18.0984 12.9486 17.7687 13.0202 17.4636 13.1509C17.1584 13.2816 16.884 13.4688 16.6564 13.7015L14.8688 15.3949C14.7041 15.3052 14.5354 15.2243 14.3746 15.1492C14.1865 15.0635 14.003 14.9688 13.825 14.8656C12.1052 13.8071 10.5786 12.4909 9.30488 10.9684C8.69006 10.2664 8.17623 9.49028 7.77682 8.66037C8.24371 8.25865 8.68592 7.83924 9.11078 7.42615C9.26086 7.27961 9.4156 7.13308 9.57034 6.98401C9.82129 6.7662 10.0239 6.5032 10.1662 6.21037C10.3086 5.91754 10.3878 5.60077 10.3994 5.27859C10.389 4.9562 10.3103 4.63909 10.1678 4.34611C10.0254 4.05313 9.82221 3.79027 9.57034 3.57317L8.08163 2.17094C7.90688 2.00545 7.74214 1.84438 7.57205 1.67889C7.24256 1.35739 6.89773 1.02641 6.55824 0.728277C6.33062 0.502782 6.05802 0.3223 5.75622 0.197288C5.45442 0.0722753 5.12943 0.00521789 4.80007 0C4.12903 0.0146145 3.49082 0.277916 3.02256 0.73333L1.15501 2.50191C0.487563 3.12 0.0808913 3.94728 0.0111345 4.82886C-0.0560083 6.12316 0.181141 7.41542 0.705464 8.61237C1.67402 11.0116 3.07854 13.2319 4.85543 15.1725ZM1.22971 4.92677C1.27815 4.31731 1.56048 3.74572 2.02342 3.31988L3.88164 1.56077C4.12105 1.3186 4.45081 1.17447 4.80074 1.15905C4.9721 1.16683 5.14004 1.20726 5.29452 1.27791C5.449 1.34856 5.58686 1.44799 5.69983 1.57025C6.03332 1.86333 6.34881 2.17094 6.68897 2.49749C6.85905 2.66298 7.0338 2.82847 7.20855 2.99901L8.69659 4.40819C8.83225 4.51906 8.94336 4.6543 9.0235 4.80608C9.10364 4.95786 9.15121 5.12318 9.16348 5.29249C9.15121 5.46179 9.10364 5.62711 9.0235 5.77889C8.94336 5.93067 8.83225 6.06591 8.69659 6.17678C8.54185 6.32332 8.38711 6.47491 8.2297 6.61892C7.76281 7.06107 7.33061 7.48427 6.85105 7.88662L6.82637 7.90999C6.67433 8.03845 6.56853 8.20873 6.5238 8.39698C6.47907 8.58523 6.49764 8.78202 6.57692 8.95977C6.58158 8.97367 6.58692 8.98314 6.59159 8.99767C7.03681 9.97254 7.62707 10.8821 8.34442 11.6985C9.69882 13.3241 11.3259 14.7279 13.1607 15.8541C13.3739 15.9784 13.5939 16.0921 13.8197 16.1945C14.0078 16.2802 14.1913 16.3749 14.3693 16.4781C14.3893 16.4876 14.404 16.4971 14.424 16.5066C14.5729 16.5825 14.7391 16.623 14.9082 16.6247C15.0486 16.6205 15.1867 16.5899 15.3145 16.5347C15.4423 16.4795 15.5572 16.4008 15.6526 16.3032L17.5201 14.5346C17.6356 14.4109 17.7758 14.31 17.9326 14.2378C18.0894 14.1656 18.2598 14.1235 18.4339 14.1139C18.6036 14.1237 18.7695 14.166 18.9214 14.2383C19.0733 14.3106 19.2081 14.4114 19.3176 14.5346L22.3291 17.382C22.4695 17.4899 22.5826 17.6264 22.6598 17.7813C22.7369 17.9362 22.7763 18.1056 22.7749 18.2769C22.7735 18.4482 22.7313 18.617 22.6516 18.7708C22.5719 18.9245 22.4566 19.0593 22.3144 19.1651C22.1049 19.378 21.8848 19.5814 21.6474 19.7968C21.2808 20.1214 20.9324 20.464 20.6036 20.8232C20.335 21.1067 20.0039 21.3308 19.6336 21.4796C19.2634 21.6283 18.8631 21.6982 18.4612 21.6841C18.3765 21.6841 18.2865 21.6797 18.2018 21.6746C16.6984 21.5276 15.2378 21.1136 13.8964 20.4543C10.7771 19.0208 8.01801 16.9715 5.80455 14.4443C4.11959 12.6027 2.78473 10.4982 1.85934 8.22454C1.39393 7.18307 1.17887 6.05663 1.22971 4.92677Z" fill="#00BBB4"/>
</svg>
