<svg width="18" height="18" viewBox="0 0 18 18" fill="none" xmlns="http://www.w3.org/2000/svg">
<path d="M5.22 0H12.78C14.1641 0.0010594 15.4912 0.551362 16.4699 1.53007C17.4486 2.50878 17.9989 3.83589 18 5.22V12.78C18 13.4655 17.865 14.1443 17.6027 14.7776C17.3403 15.4109 16.9558 15.9864 16.4711 16.4711C15.9864 16.9558 15.4109 17.3403 14.7776 17.6027C14.1443 17.865 13.4655 18 12.78 18H5.22C3.83589 17.9989 2.50878 17.4486 1.53007 16.4699C0.551362 15.4912 0.0010594 14.1641 0 12.78V5.22C0 3.83557 0.549963 2.50784 1.5289 1.5289C2.50784 0.549963 3.83557 0 5.22 0ZM5.04 1.8C4.1807 1.8 3.35659 2.14136 2.74897 2.74897C2.14136 3.35659 1.8 4.1807 1.8 5.04V12.96C1.79974 13.3856 1.88336 13.807 2.04609 14.2002C2.20883 14.5934 2.44747 14.9507 2.74839 15.2516C3.0493 15.5525 3.40658 15.7912 3.79979 15.9539C4.19301 16.1166 4.61444 16.2003 5.04 16.2H12.96C13.3855 16.2 13.8068 16.1162 14.1999 15.9534C14.593 15.7905 14.9502 15.5519 15.251 15.251C15.5519 14.9502 15.7905 14.593 15.9534 14.1999C16.1162 13.8068 16.2 13.3855 16.2 12.96V5.04C16.2003 4.61444 16.1166 4.19301 15.9539 3.79979C15.7912 3.40658 15.5525 3.0493 15.2516 2.74839C14.9507 2.44747 14.5934 2.20883 14.2002 2.04609C13.807 1.88336 13.3856 1.79974 12.96 1.8H5.04ZM13.725 3.15C13.9475 3.15 14.165 3.21598 14.35 3.3396C14.535 3.46321 14.6792 3.63891 14.7644 3.84448C14.8495 4.05005 14.8718 4.27625 14.8284 4.49448C14.785 4.71271 14.6778 4.91316 14.5205 5.0705C14.3632 5.22783 14.1627 5.33498 13.9445 5.37838C13.7262 5.42179 13.5 5.39951 13.2945 5.31436C13.0889 5.22922 12.9132 5.08502 12.7896 4.90002C12.666 4.71501 12.6 4.4975 12.6 4.275C12.6 3.97663 12.7185 3.69048 12.9295 3.47951C13.1405 3.26853 13.4266 3.15 13.725 3.15ZM9 4.5C9.89002 4.5 10.76 4.76392 11.5001 5.25839C12.2401 5.75285 12.8169 6.45566 13.1575 7.27792C13.4981 8.10019 13.5872 9.00499 13.4135 9.87791C13.2399 10.7508 12.8113 11.5526 12.182 12.182C11.5526 12.8113 10.7508 13.2399 9.87791 13.4135C9.00499 13.5872 8.10019 13.4981 7.27792 13.1575C6.45566 12.8169 5.75285 12.2401 5.25839 11.5001C4.76392 10.76 4.5 9.89002 4.5 9C4.5 7.80653 4.97411 6.66193 5.81802 5.81802C6.66193 4.97411 7.80653 4.5 9 4.5ZM9 6.3C8.46599 6.3 7.94397 6.45835 7.49996 6.75503C7.05595 7.05171 6.70988 7.47339 6.50553 7.96675C6.30117 8.46012 6.2477 9.003 6.35188 9.52674C6.45606 10.0505 6.71321 10.5316 7.09081 10.9092C7.46841 11.2868 7.94951 11.5439 8.47326 11.6481C8.997 11.7523 9.53988 11.6988 10.0332 11.4945C10.5266 11.2901 10.9483 10.9441 11.245 10.5C11.5416 10.056 11.7 9.53401 11.7 9C11.7 8.28392 11.4155 7.59716 10.9092 7.09081C10.4028 6.58446 9.71608 6.3 9 6.3Z" fill="#00BBB4"/>
</svg>
