<svg width="18" height="18" viewBox="0 0 18 18" fill="none" xmlns="http://www.w3.org/2000/svg">
<path d="M18 18H14V11.25C13.9253 10.7082 13.6556 10.2122 13.2414 9.8551C12.8271 9.49796 12.2969 9.30415 11.75 9.31C11.5056 9.31604 11.265 9.37181 11.0429 9.4739C10.8207 9.57599 10.6217 9.72226 10.4579 9.90379C10.2942 10.0853 10.1691 10.2983 10.0904 10.5298C10.0117 10.7612 9.98091 11.0063 10 11.25V18H6V6H10V8C10.4172 7.46636 10.9474 7.03177 11.5526 6.72746C12.1578 6.42315 12.8228 6.25667 13.5 6.24C14.6945 6.24238 15.8392 6.71863 16.6829 7.56419C17.5266 8.40975 18.0003 9.55552 18 10.75V18ZM4 18H0V6H4V18ZM2 0C2.39556 0 2.78224 0.117298 3.11114 0.337061C3.44004 0.556823 3.69638 0.869181 3.84776 1.23463C3.99913 1.60009 4.03874 2.00222 3.96157 2.39018C3.8844 2.77814 3.69392 3.13451 3.41421 3.41421C3.13451 3.69392 2.77814 3.8844 2.39018 3.96157C2.00222 4.03874 1.60009 3.99913 1.23463 3.84776C0.869181 3.69638 0.556823 3.44004 0.337061 3.11114C0.117298 2.78224 0 2.39556 0 2C0 1.46957 0.210714 0.960859 0.585786 0.585786C0.960859 0.210714 1.46957 0 2 0Z" fill="#00BBB4"/>
</svg>
