<svg width="23" height="18" viewBox="0 0 23 18" fill="none" xmlns="http://www.w3.org/2000/svg">
<path d="M22.151 2.11793C21.3257 2.48997 20.4493 2.73637 19.551 2.84893C20.4989 2.27879 21.2066 1.38297 21.542 0.328927C20.6512 0.859918 19.6767 1.2356 18.66 1.43993C18.2342 0.978224 17.7159 0.611378 17.1389 0.363273C16.5618 0.115168 15.939 -0.00863369 15.311 -7.27295e-05C14.1096 0.0041633 12.959 0.484723 12.1114 1.3362C11.2639 2.18767 10.7887 3.34054 10.79 4.54193C10.7902 4.89115 10.8291 5.23928 10.906 5.57993C9.10069 5.48841 7.3347 5.01886 5.72234 4.20166C4.10998 3.38445 2.68717 2.2378 1.546 0.835927C0.965551 1.83322 0.788035 3.0146 1.04976 4.13844C1.31148 5.26228 1.99266 6.24368 2.954 6.88193C2.23319 6.87384 1.52492 6.6924 0.889 6.35293V6.38493C0.888356 7.43415 1.25067 8.45129 1.91448 9.26383C2.57829 10.0764 3.50273 10.6343 4.531 10.8429C3.86463 11.0258 3.16485 11.0512 2.487 10.9169C2.77465 11.8194 3.33785 12.6091 4.09747 13.175C4.85708 13.7409 5.77492 14.0546 6.722 14.0719C5.11678 15.3425 3.1272 16.0295 1.08 16.0199C0.719059 16.0197 0.35844 15.9983 0 15.9559C2.07777 17.2924 4.49654 18.002 6.967 17.9999C8.66762 18.0103 10.3534 17.683 11.9266 17.0369C13.4997 16.3909 14.929 15.439 16.1316 14.2365C17.3341 13.0339 18.286 11.6047 18.932 10.0315C19.578 8.45831 19.9054 6.77255 19.895 5.07193C19.895 4.87193 19.895 4.67993 19.884 4.47893C20.7765 3.83582 21.5447 3.03581 22.151 2.11793Z" fill="#00BBB4"/>
</svg>
